# xmcd
#
# Track frame offsets: 
#        150
#        16661
#        35050
#        52069
#        69297
#        86452
#        104963
#        122623
#        142796
#        157666
#        176720
#        195212
#        211770
#        229703
#        245442
#        265860
#        285365
#        302461
#        322377
#        340442
#
# Disc length: 4834 seconds
#
# Revision: 1
# Processed by: cddbd v1.5.2PL0 Copyright (c) Steve Scherf et al.
# Submitted via: ExactAudioCopy v1.3
#
DISCID=1012e014
DTITLE=Various Artist - What's Up? R&B Greatest Hits! II [Disc 1]
DYEAR=2007
DGENRE=R&B
TTITLE0=Ne-Yo - Sexy Love
TTITLE1=Mary J. Blige - Be Without You
TTITLE2=Rihanna - Unfaithful
TTITLE3=Marques Houston - Circle
TTITLE4=Mila J Feat. Marques Houston - Good Lookin Out
TTITLE5=Akon Feat. Snoop Dogg - I Wanna Love You
TTITLE6=Jibbs Feat. Melody Thornton - Go Too Far
TTITLE7=Nelly Feat. Kelly Rowland - Dilemma
TTITLE8=Lionel Richie - I Call It Love
TTITLE9=Robin Thicke - Lost Without U
TTITLE10=Bobby Valentino Feat. Timbaland - Anonymous
TTITLE11=LeMarvin - Thug Like Me
TTITLE12=Taio Cruz - I Just Wanna Know
TTITLE13=Megan Rochell - Floating
TTITLE14=Christina Milian - Someday One Day
TTITLE15=Natalie - Call Me Up
TTITLE16=Avant Feat. Nicole Scherzinger - Lie About Us
TTITLE17=Ginuwine - Differences
TTITLE18=Brian McKnight - Shoulda, Woulda, Coulda
TTITLE19=Joe - I Wanna Know
EXTD=
EXTT0=
EXTT1=
EXTT2=
EXTT3=
EXTT4=
EXTT5=
EXTT6=
EXTT7=
EXTT8=
EXTT9=
EXTT10=
EXTT11=
EXTT12=
EXTT13=
EXTT14=
EXTT15=
EXTT16=
EXTT17=
EXTT18=
EXTT19=
PLAYORDER=
